# xmcd
#
# Track frame offsets: 
#        150
#        19809
#        37684
#        52007
#        64268
#        88774
#        104532
#        122455
#        144986
#        160392
#        184481
#        198151
#        226179
#
# Disc length: 3280 seconds
#
# Revision: 0
# Processed by: cddbd v1.5.2PL0 Copyright (c) Steve Scherf et al.
# Submitted via: ExactAudioCopy v0.95b4
#
DISCID=ac0cce0d
DTITLE=The Felice Brothers - Yonder is the Clock
DYEAR=2009
DGENRE=Country
TTITLE0=The Big Surprise
TTITLE1=Penn Station
TTITLE2=Buried in Ice
TTITLE3=Chicken Wire
TTITLE4=Ambulance Man
TTITLE5=Sailor Song
TTITLE6=Katie Dear
TTITLE7=Run Chicken Run
TTITLE8=All When We Were Young
TTITLE9=Boy from Lawrence County
TTITLE10=Memphis Flu
TTITLE11=Cooperstown
TTITLE12=Rise and Shine
EXTD=
EXTT0=
EXTT1=
EXTT2=
EXTT3=
EXTT4=
EXTT5=
EXTT6=
EXTT7=
EXTT8=
EXTT9=
EXTT10=
EXTT11=
EXTT12=
PLAYORDER=
